<svg enable-background="new 0 0 50 50" viewBox="0 0 50 50" xmlns="http://www.w3.org/2000/svg"><g fill="#231f20"><path d="m10.289 14.211h3.102l1.444 25.439c.029.529.468.943.998.943h18.933c.53 0 .969-.415.998-.944l1.421-25.438h3.104c.553 0 1-.448 1-1s-.447-1-1-1h-3.741c-.055 0-.103.023-.156.031-.052-.008-.1-.031-.153-.031h-5.246v-2.617c0-.552-.447-1-1-1h-9.409c-.553 0-1 .448-1 1v2.617h-5.248c-.046 0-.087.021-.132.027-.046-.007-.087-.027-.135-.027h-3.779c-.553 0-1 .448-1 1s.446 1 .999 1zm11.295-3.617h7.409v1.617h-7.409zm13.598 3.617-1.362 24.383h-17.042l-1.384-24.383z"/><path d="m20.337 36.719c.02 0 .038 0 .058-.001.552-.031.973-.504.941-1.055l-1.052-18.535c-.031-.552-.517-.967-1.055-.942-.552.031-.973.504-.941 1.055l1.052 18.535c.03.532.471.943.997.943z"/><path d="m30.147 36.718c.02.001.038.001.058.001.526 0 .967-.411.997-.943l1.052-18.535c.031-.551-.39-1.024-.941-1.055-.543-.023-1.023.39-1.055.942l-1.052 18.535c-.031.551.39 1.024.941 1.055z"/><path d="m25.289 36.719c.553 0 1-.448 1-1v-18.535c0-.552-.447-1-1-1s-1 .448-1 1v18.535c0 .552.447 1 1 1z"/></g></svg>